# Aspose.3D Wavefront OBJ Exporter
# Copyright 2004-2021 Aspose Pty Ltd.
# File created: 01/07/2022 04:13:49

mtllib resources/textures/portal.lib

#
# object obj_53860795
#

v 1.6483182907104492 16.10104655617192292 -19.15221335897240352
v 4.912371309728769E-08 16.10104655617192292 -19.15221335897240352
v 4.912371309728769E-08 16.10104655617192292 19.15221335897240352
v 1.6483182907104492 16.10104655617192292 19.15221335897240352
v 1.6483182907104492 -16.10104655617192292 19.15221335897240352
v 1.6483182907104492 16.10104655617192292 19.15221335897240352
v 4.912371309728769E-08 16.10104655617192292 19.15221335897240352
v 4.912371309728769E-08 -16.10104655617192292 19.15221335897240352
v 4.912371309728769E-08 -16.10104655617192292 19.15221335897240352
v 4.912371309728769E-08 16.10104655617192292 19.15221335897240352
v 4.912371309728769E-08 16.10104655617192292 -19.15221335897240352
v 4.912371309728769E-08 -16.10104655617192292 -19.15221335897240352
v 4.912371309728769E-08 -16.10104655617192292 -19.15221335897240352
v 1.6483182907104492 -16.10104655617192292 -19.15221335897240352
v 1.6483182907104492 -16.10104655617192292 19.15221335897240352
v 4.912371309728769E-08 -16.10104655617192292 19.15221335897240352
v 1.05108456604932599 -11.05505263585860121 -13.46657232718314392
v 1.05108456604932599 11.05505263585860121 -13.46657232718314392
v 1.05108456604932599 11.05505263585860121 13.46657232718314392
v 1.05108456604932599 -11.05505263585860121 13.46657232718314392
v 4.912371309728769E-08 -16.10104655617192292 -19.15221335897240352
v 4.912371309728769E-08 16.10104655617192292 -19.15221335897240352
v 1.6483182907104492 16.10104655617192292 -19.15221335897240352
v 1.6483182907104492 -16.10104655617192292 -19.15221335897240352
v 2.20333981221222076 15.64689288063095776 -18.577473817105556
v 2.20333981221222076 -15.64689288063095776 -18.577473817105556
v 1.6483182907104492 -16.10104655617192292 -19.15221335897240352
v 1.6483182907104492 16.10104655617192292 -19.15221335897240352
v 2.20333981221222076 -15.64689288063095776 18.577473817105556
v 2.20333981221222076 15.64689288063095776 18.577473817105556
v 1.6483182907104492 16.10104655617192292 19.15221335897240352
v 1.6483182907104492 -16.10104655617192292 19.15221335897240352
v 2.20333981221222076 15.64689288063095776 18.577473817105556
v 2.20333981221222076 15.64689288063095776 -18.577473817105556
v 1.6483182907104492 16.10104655617192292 -19.15221335897240352
v 1.6483182907104492 16.10104655617192292 19.15221335897240352
v 2.20333981221222076 -15.64689288063095776 -18.577473817105556
v 2.20333981221222076 -15.64689288063095776 18.577473817105556
v 1.6483182907104492 -16.10104655617192292 19.15221335897240352
v 1.6483182907104492 -16.10104655617192292 -19.15221335897240352
v 1.85460821499634672 15.27933844322592448 -18.11232714904508612
v 1.85460821499634672 -15.27933844322592448 -18.11232714904508612
v 2.20333981221222076 -15.64689288063095776 -18.577473817105556
v 2.20333981221222076 15.64689288063095776 -18.577473817105556
v 1.85460821499634672 -15.27933844322592448 18.11232714904508612
v 1.85460821499634672 15.27933844322592448 18.11232714904508612
v 2.20333981221222076 15.64689288063095776 18.577473817105556
v 2.20333981221222076 -15.64689288063095776 18.577473817105556
v 1.85460821499634672 15.27933844322592448 18.11232714904508612
v 1.85460821499634672 15.27933844322592448 -18.11232714904508612
v 2.20333981221222076 15.64689288063095776 -18.577473817105556
v 2.20333981221222076 15.64689288063095776 18.577473817105556
v 1.85460821499634672 -15.27933844322592448 -18.11232714904508612
v 1.85460821499634672 -15.27933844322592448 18.11232714904508612
v 2.20333981221222076 -15.64689288063095776 18.577473817105556
v 2.20333981221222076 -15.64689288063095776 -18.577473817105556
v 2.25200903271593232 15.04164447513608138 -17.81152121113927936
v 2.25200903271593232 -15.04164447513608138 -17.81152121113927936
v 1.85460821499634672 -15.27933844322592448 -18.11232714904508612
v 1.85460821499634672 15.27933844322592448 -18.11232714904508612
v 2.25200903271593232 -15.04164447513608138 17.81152121113927936
v 2.25200903271593232 15.04164447513608138 17.81152121113927936
v 1.85460821499634672 15.27933844322592448 18.11232714904508612
v 1.85460821499634672 -15.27933844322592448 18.11232714904508612
v 2.25200903271593232 15.04164447513608138 17.81152121113927936
v 2.25200903271593232 15.04164447513608138 -17.81152121113927936
v 1.85460821499634672 15.27933844322592448 -18.11232714904508612
v 1.85460821499634672 15.27933844322592448 18.11232714904508612
v 2.25200903271593232 -15.04164447513608138 -17.81152121113927936
v 2.25200903271593232 -15.04164447513608138 17.81152121113927936
v 1.85460821499634672 -15.27933844322592448 18.11232714904508612
v 1.85460821499634672 -15.27933844322592448 -18.11232714904508612
v 1.91161235414870128 14.36826044627650848 -17.04476459698935286
v 1.91161235414870128 -14.36826044627650848 -17.04476459698935286
v 2.25200903271593232 -15.04164447513608138 -17.81152121113927936
v 2.25200903271593232 15.04164447513608138 -17.81152121113927936
v 1.91161235414870128 -14.36826044627650848 17.04476459698935286
v 1.91161235414870128 14.36826044627650848 17.04476459698935286
v 2.25200903271593232 15.04164447513608138 17.81152121113927936
v 2.25200903271593232 -15.04164447513608138 17.81152121113927936
v 1.91161235414870128 14.36826044627650848 17.04476459698935286
v 1.91161235414870128 14.36826044627650848 -17.04476459698935286
v 2.25200903271593232 15.04164447513608138 -17.81152121113927936
v 2.25200903271593232 15.04164447513608138 17.81152121113927936
v 1.91161235414870128 -14.36826044627650848 -17.04476459698935286
v 1.91161235414870128 -14.36826044627650848 17.04476459698935286
v 2.25200903271593232 -15.04164447513608138 17.81152121113927936
v 2.25200903271593232 -15.04164447513608138 -17.81152121113927936
v 2.04790275572463543 13.42995296016943032 -16.14492033816793536
v 2.04790275572463543 -13.42995296016943032 -16.14492033816793536
v 1.91161235414870128 -14.36826044627650848 -17.04476459698935286
v 1.91161235414870128 14.36826044627650848 -17.04476459698935286
v 2.04790275572463543 -13.42995296016943032 16.14492033816793536
v 2.04790275572463543 13.42995296016943032 16.14492033816793536
v 1.91161235414870128 14.36826044627650848 17.04476459698935286
v 1.91161235414870128 -14.36826044627650848 17.04476459698935286
v 2.04790275572463543 13.42995296016943032 16.14492033816793536
v 2.04790275572463543 13.42995296016943032 -16.14492033816793536
v 1.91161235414870128 14.36826044627650848 -17.04476459698935286
v 1.91161235414870128 14.36826044627650848 17.04476459698935286
v 2.04790275572463543 -13.42995296016943032 -16.14492033816793536
v 2.04790275572463543 -13.42995296016943032 16.14492033816793536
v 1.91161235414870128 -14.36826044627650848 17.04476459698935286
v 1.91161235414870128 -14.36826044627650848 -17.04476459698935286
v 1.36850736121749608 12.31379342598188488 -15.05953115149043242
v 1.36850736121749608 -12.31379342598188488 -15.05953115149043242
v 2.04790275572463543 -13.42995296016943032 -16.14492033816793536
v 2.04790275572463543 13.42995296016943032 -16.14492033816793536
v 1.36850736121749608 -12.31379342598188488 15.05953115149043242
v 1.36850736121749608 12.31379342598188488 15.05953115149043242
v 2.04790275572463543 13.42995296016943032 16.14492033816793536
v 2.04790275572463543 -13.42995296016943032 16.14492033816793536
v 1.36850736121749608 12.31379342598188488 15.05953115149043242
v 1.36850736121749608 12.31379342598188488 -15.05953115149043242
v 2.04790275572463543 13.42995296016943032 -16.14492033816793536
v 2.04790275572463543 13.42995296016943032 16.14492033816793536
v 1.36850736121749608 -12.31379342598188488 -15.05953115149043242
v 1.36850736121749608 -12.31379342598188488 15.05953115149043242
v 2.04790275572463543 -13.42995296016943032 16.14492033816793536
v 2.04790275572463543 -13.42995296016943032 -16.14492033816793536
v 1.36850736121749608 11.21544491245754216 -13.6695516016801548
v 1.36850736121749608 -11.21544491245754216 -13.6695516016801548
v 1.36850736121749608 -12.31379342598188488 -15.05953115149043242
v 1.36850736121749608 12.31379342598188488 -15.05953115149043242
v 1.36850736121749608 -11.21544491245754216 13.6695516016801548
v 1.36850736121749608 11.21544491245754216 13.6695516016801548
v 1.36850736121749608 12.31379342598188488 15.05953115149043242
v 1.36850736121749608 -12.31379342598188488 15.05953115149043242
v 1.36850736121749608 11.21544491245754216 13.6695516016801548
v 1.36850736121749608 11.21544491245754216 -13.6695516016801548
v 1.36850736121749608 12.31379342598188488 -15.05953115149043242
v 1.36850736121749608 12.31379342598188488 15.05953115149043242
v 1.36850736121749608 -11.21544491245754216 -13.6695516016801548
v 1.36850736121749608 -11.21544491245754216 13.6695516016801548
v 1.36850736121749608 -12.31379342598188488 15.05953115149043242
v 1.36850736121749608 -12.31379342598188488 -15.05953115149043242
v 1.05108456604932599 11.05505263585860121 -13.46657232718314392
v 1.05108456604932599 -11.05505263585860121 -13.46657232718314392
v 1.36850736121749608 -11.21544491245754216 -13.6695516016801548
v 1.36850736121749608 11.21544491245754216 -13.6695516016801548
v 1.05108456604932599 -11.05505263585860121 13.46657232718314392
v 1.05108456604932599 11.05505263585860121 13.46657232718314392
v 1.36850736121749608 11.21544491245754216 13.6695516016801548
v 1.36850736121749608 -11.21544491245754216 13.6695516016801548
v 1.05108456604932599 11.05505263585860121 13.46657232718314392
v 1.05108456604932599 11.05505263585860121 -13.46657232718314392
v 1.36850736121749608 11.21544491245754216 -13.6695516016801548
v 1.36850736121749608 11.21544491245754216 13.6695516016801548
v 1.05108456604932599 -11.05505263585860121 -13.46657232718314392
v 1.05108456604932599 -11.05505263585860121 13.46657232718314392
v 1.36850736121749608 -11.21544491245754216 13.6695516016801548
v 1.36850736121749608 -11.21544491245754216 -13.6695516016801548
# 152 vertices

vn 0 1 0
vn 0 1 0
vn 0 1 0
vn 0 1 0
vn 0 0 1
vn 0 0 1
vn 0 0 1
vn 0 0 1
vn -1 0 0
vn -1 0 0
vn -1 0 0
vn -1 0 0
vn 0 -1 0
vn 0 -1 0
vn 0 -1 0
vn 0 -1 0
vn 1 0 0
vn 1 0 0
vn 1 0 0
vn 1 0 0
vn 0 0 -1
vn 0 0 -1
vn 0 0 -1
vn 0 0 -1
vn 0.04184748977422714 0 -0.9991241097450256
vn 0.04184748977422714 0 -0.9991241097450256
vn 0.04184748977422714 0 -0.9991241097450256
vn 0.04184748977422714 0 -0.9991241097450256
vn 0.04184748977422714 0 0.9991241097450256
vn 0.04184748977422714 0 0.9991241097450256
vn 0.04184748977422714 0 0.9991241097450256
vn 0.04184748977422714 0 0.9991241097450256
vn 0.04184748604893684 0.9991240501403808 0
vn 0.04184748604893684 0.9991240501403808 0
vn 0.04184748604893684 0.9991240501403808 0
vn 0.04184748604893684 0.9991240501403808 0
vn 0.04184748604893684 -0.9991240501403808 0
vn 0.04184748604893684 -0.9991240501403808 0
vn 0.04184748604893684 -0.9991240501403808 0
vn 0.04184748604893684 -0.9991240501403808 0
vn 0.05387115105986595 0 0.99854791164398192
vn 0.05387115105986595 0 0.99854791164398192
vn 0.05387115105986595 0 0.99854791164398192
vn 0.05387115105986595 0 0.99854791164398192
vn 0.05387115105986595 0 -0.99854791164398192
vn 0.05387115105986595 0 -0.99854791164398192
vn 0.05387115105986595 0 -0.99854791164398192
vn 0.05387115105986595 0 -0.99854791164398192
vn 0.05387114733457565 -0.99854797124862672 0
vn 0.05387114733457565 -0.99854797124862672 0
vn 0.05387114733457565 -0.99854797124862672 0
vn 0.05387114733457565 -0.99854797124862672 0
vn 0.05387114733457565 0.99854797124862672 0
vn 0.05387114733457565 0.99854797124862672 0
vn 0.05387114733457565 0.99854797124862672 0
vn 0.05387114733457565 0.99854797124862672 0
vn 0.03060151636600494 0 -0.99953174591064448
vn 0.03060151636600494 0 -0.99953174591064448
vn 0.03060151636600494 0 -0.99953174591064448
vn 0.03060151636600494 0 -0.99953174591064448
vn 0.03060151636600494 0 0.99953174591064448
vn 0.03060151636600494 0 0.99953174591064448
vn 0.03060151636600494 0 0.99953174591064448
vn 0.03060151636600494 0 0.99953174591064448
vn 0.03060151636600494 0.99953174591064448 0
vn 0.03060151636600494 0.99953174591064448 0
vn 0.03060151636600494 0.99953174591064448 0
vn 0.03060151636600494 0.99953174591064448 0
vn 0.03060151636600494 -0.99953174591064448 0
vn 0.03060151636600494 -0.99953174591064448 0
vn 0.03060151636600494 -0.99953174591064448 0
vn 0.03060151636600494 -0.99953174591064448 0
vn 0.0907331332564354 0 0.99587535858154304
vn 0.0907331332564354 0 0.99587535858154304
vn 0.0907331332564354 0 0.99587535858154304
vn 0.0907331332564354 0 0.99587535858154304
vn 0.0907331332564354 0 -0.99587535858154304
vn 0.0907331332564354 0 -0.99587535858154304
vn 0.0907331332564354 0 -0.99587535858154304
vn 0.0907331332564354 0 -0.99587535858154304
vn 0.10074403136968612 -0.99491244554519648 0
vn 0.10074403136968612 -0.99491244554519648 0
vn 0.10074403136968612 -0.99491244554519648 0
vn 0.10074403136968612 -0.99491244554519648 0
vn 0.10074403136968612 0.99491244554519648 0
vn 0.10074403136968612 0.99491244554519648 0
vn 0.10074403136968612 0.99491244554519648 0
vn 0.10074403136968612 0.99491244554519648 0
vn 0.25800740718841552 0 -0.96614295244216912
vn 0.25800740718841552 0 -0.96614295244216912
vn 0.25800740718841552 0 -0.96614295244216912
vn 0.25800740718841552 0 -0.96614295244216912
vn 0.25800740718841552 0 0.96614295244216912
vn 0.25800740718841552 0 0.96614295244216912
vn 0.25800740718841552 0 0.96614295244216912
vn 0.25800740718841552 0 0.96614295244216912
vn 0.33236688375473024 0.943150281906128 0
vn 0.33236688375473024 0.943150281906128 0
vn 0.33236688375473024 0.943150281906128 0
vn 0.33236688375473024 0.943150281906128 0
vn 0.33236688375473024 -0.943150281906128 0
vn 0.33236688375473024 -0.943150281906128 0
vn 0.33236688375473024 -0.943150281906128 0
vn 0.33236688375473024 -0.943150281906128 0
vn 0.06448323279619217 0 0.99791878461837776
vn 0.06448323279619217 0 0.99791878461837776
vn 0.06448323279619217 0 0.99791878461837776
vn 0.06448323279619217 0 0.99791878461837776
vn 0.06448323279619217 0 -0.99791878461837776
vn 0.06448323279619217 0 -0.99791878461837776
vn 0.06448323279619217 0 -0.99791878461837776
vn 0.06448323279619217 0 -0.99791878461837776
vn 0.08379738032817841 -0.99648284912109376 0
vn 0.08379738032817841 -0.99648284912109376 0
vn 0.08379738032817841 -0.99648284912109376 0
vn 0.08379738032817841 -0.99648284912109376 0
vn 0.08379738032817841 0.99648284912109376 0
vn 0.08379738032817841 0.99648284912109376 0
vn 0.08379738032817841 0.99648284912109376 0
vn 0.08379738032817841 0.99648284912109376 0
vn 1 0 0
vn 1 0 0
vn 1 0 0
vn 1 0 0
vn 1 0 0
vn 1 0 0
vn 1 0 0
vn 1 0 0
vn 1 0 0
vn 1 0 0
vn 1 0 0
vn 1 0 0
vn 1 0 0
vn 1 0 0
vn 1 0 0
vn 1 0 0
vn 0.02585574612021446 0 0.99966567754745488
vn 0.02585574612021446 0 0.99966567754745488
vn 0.02585574612021446 0 0.99966567754745488
vn 0.02585574612021446 0 0.99966567754745488
vn 0.02585574612021446 0 -0.99966567754745488
vn 0.02585574612021446 0 -0.99966567754745488
vn 0.02585574612021446 0 -0.99966567754745488
vn 0.02585574612021446 0 -0.99966567754745488
vn 0.02585574425756931 -0.99966567754745488 0
vn 0.02585574425756931 -0.99966567754745488 0
vn 0.02585574425756931 -0.99966567754745488 0
vn 0.02585574425756931 -0.99966567754745488 0
vn 0.02585574425756931 0.99966567754745488 0
vn 0.02585574425756931 0.99966567754745488 0
vn 0.02585574425756931 0.99966567754745488 0
vn 0.02585574425756931 0.99966567754745488 0
# 152 vertex normals

vt 0.784325122833252 -0.87793904542922976 0
vt 0.784325122833252 -0.8518628478050232 0
vt 0.24410630762577056 -0.8518628478050232 0
vt 0.24410630762577056 -0.87793904542922976 0
vt 0.78550541400909424 -0.12541578710079194 0
vt 0.1745104342699051 -0.12541578710079194 0
vt 0.1745104342699051 -0.14478228986263276 0
vt 0.78550541400909424 -0.14478228986263276 0
vt 0 -0 0
vt 0 -1 0
vt 1 -1 0
vt 1 -0 0
vt 0.77652543783187872 -0.8813629746437072 0
vt 0.77652543783187872 -0.85550969839096064 0
vt 0.2736032009124756 -0.85550969839096064 0
vt 0.2736032009124756 -0.8813629746437072 0
vt 0.87581020593643184 -0.15669775009155274 0
vt 0.87581014633178704 -0.84330213069915776 0
vt 0.1497868001461029 -0.84330213069915776 0
vt 0.1497868001461029 -0.15669772028923034 0
vt 0.90730720758438112 -0.23864045739173888 0
vt 0.88585007190704352 -0.23864045739173888 0
vt 0.88585007190704352 -0.73864042758941648 0
vt 0.90730720758438112 -0.73864042758941648 0
vt 0.98853731155395504 -0.98589682579040528 0
vt 0.98853731155395504 -0.01410329341888427 0
vt 0.99993890523910528 -0 0
vt 0.99993890523910528 -1 0
vt 0.01500451005995273 -0.01410330366343259 0
vt 0.01500451005995273 -0.98589682579040528 0
vt 0 -1 0
vt 0 -0 0
vt 0.01500451005995273 -0.98589682579040528 0
vt 0.98853731155395504 -0.98589682579040528 0
vt 0.99993890523910528 -1 0
vt 0 -1 0
vt 0.98853731155395504 -0.01410329341888427 0
vt 0.01500451005995273 -0.01410330366343259 0
vt 0 -0 0
vt 0.99993890523910528 -0 0
vt 0.9793100953102112 -0.97448283433914192 0
vt 0.9793100953102112 -0.02551719546318054 0
vt 0.98853731155395504 -0.01410329341888427 0
vt 0.98853731155395504 -0.98589682579040528 0
vt 0.02714789286255836 -0.02551719173789024 0
vt 0.02714789286255836 -0.97448283433914192 0
vt 0.01500451005995273 -0.98589682579040528 0
vt 0.01500451005995273 -0.01410330366343259 0
vt 0.02714789286255836 -0.97448283433914192 0
vt 0.9793100953102112 -0.97448283433914192 0
vt 0.98853731155395504 -0.98589682579040528 0
vt 0.01500451005995273 -0.98589682579040528 0
vt 0.9793100953102112 -0.02551719546318054 0
vt 0.02714789286255836 -0.02551719173789024 0
vt 0.01500451005995273 -0.01410330366343259 0
vt 0.98853731155395504 -0.01410329341888427 0
vt 0.97334301471710208 -0.96710157394409184 0
vt 0.97334301471710208 -0.03289857506752014 0
vt 0.9793100953102112 -0.02551719546318054 0
vt 0.9793100953102112 -0.97448283433914192 0
vt 0.03500094264745712 -0.03289856761693954 0
vt 0.03500094264745712 -0.96710157394409184 0
vt 0.02714789286255836 -0.97448283433914192 0
vt 0.02714789286255836 -0.02551719173789024 0
vt 0.03500094264745712 -0.96710157394409184 0
vt 0.97334301471710208 -0.96710157394409184 0
vt 0.9793100953102112 -0.97448283433914192 0
vt 0.02714789286255836 -0.97448283433914192 0
vt 0.97334301471710208 -0.03289857506752014 0
vt 0.03500094264745712 -0.03289856761693954 0
vt 0.02714789286255836 -0.02551719173789024 0
vt 0.9793100953102112 -0.02551719546318054 0
vt 0.95813268423080448 -0.9461902379989624 0
vt 0.95813268423080448 -0.0538097620010376 0
vt 0.97334301471710208 -0.03289857506752014 0
vt 0.97334301471710208 -0.96710157394409184 0
vt 0.05501830950379372 -0.0538097582757473 0
vt 0.05501830950379372 -0.9461902379989624 0
vt 0.03500094264745712 -0.96710157394409184 0
vt 0.03500094264745712 -0.03289856761693954 0
vt 0.05501830950379372 -0.9461902379989624 0
vt 0.95813268423080448 -0.9461902379989624 0
vt 0.97334301471710208 -0.96710157394409184 0
vt 0.03500094264745712 -0.96710157394409184 0
vt 0.95813268423080448 -0.0538097620010376 0
vt 0.05501830950379372 -0.0538097582757473 0
vt 0.03500094264745712 -0.03289856761693954 0
vt 0.97334301471710208 -0.03289857506752014 0
vt 0.9402822852134704 -0.917052149772644 0
vt 0.9402822852134704 -0.08294796943664551 0
vt 0.95813268423080448 -0.0538097620010376 0
vt 0.95813268423080448 -0.9461902379989624 0
vt 0.07851035892963409 -0.0829479843378067 0
vt 0.07851035892963409 -0.917052149772644 0
vt 0.05501830950379372 -0.9461902379989624 0
vt 0.05501830950379372 -0.0538097582757473 0
vt 0.07851035892963409 -0.917052149772644 0
vt 0.9402822852134704 -0.917052149772644 0
vt 0.95813268423080448 -0.9461902379989624 0
vt 0.05501830950379372 -0.9461902379989624 0
vt 0.9402822852134704 -0.08294796943664551 0
vt 0.07851035892963409 -0.0829479843378067 0
vt 0.05501830950379372 -0.0538097582757473 0
vt 0.95813268423080448 -0.0538097620010376 0
vt 0.91875082254409792 -0.88239091634750368 0
vt 0.91875082254409792 -0.11760896444320678 0
vt 0.9402822852134704 -0.08294796943664551 0
vt 0.9402822852134704 -0.917052149772644 0
vt 0.10684619843959808 -0.1176089569926262 0
vt 0.10684619843959808 -0.88239091634750368 0
vt 0.07851035892963409 -0.917052149772644 0
vt 0.07851035892963409 -0.0829479843378067 0
vt 0.10684619843959808 -0.88239091634750368 0
vt 0.91875082254409792 -0.88239091634750368 0
vt 0.9402822852134704 -0.917052149772644 0
vt 0.07851035892963409 -0.917052149772644 0
vt 0.91875082254409792 -0.11760896444320678 0
vt 0.10684619843959808 -0.1176089569926262 0
vt 0.07851035892963409 -0.0829479843378067 0
vt 0.9402822852134704 -0.08294796943664551 0
vt 0.8812817335128784 -0.84828293323516848 0
vt 0.8812817335128784 -0.1517169326543808 0
vt 0.91875082254409792 -0.11760896444320678 0
vt 0.91875082254409792 -0.88239091634750368 0
vt 0.1443151831626892 -0.1517169177532196 0
vt 0.1443151831626892 -0.84828287363052368 0
vt 0.10684619843959808 -0.88239091634750368 0
vt 0.10684619843959808 -0.1176089569926262 0
vt 0.1443151831626892 -0.84828287363052368 0
vt 0.8812817335128784 -0.84828293323516848 0
vt 0.91875082254409792 -0.88239091634750368 0
vt 0.10684619843959808 -0.88239091634750368 0
vt 0.8812817335128784 -0.1517169326543808 0
vt 0.1443151831626892 -0.1517169177532196 0
vt 0.10684619843959808 -0.1176089569926262 0
vt 0.91875082254409792 -0.11760896444320678 0
vt 0.87581014633178704 -0.84330213069915776 0
vt 0.87581020593643184 -0.15669775009155274 0
vt 0.8812817335128784 -0.1517169326543808 0
vt 0.8812817335128784 -0.84828293323516848 0
vt 0.1497868001461029 -0.15669772028923034 0
vt 0.1497868001461029 -0.84330213069915776 0
vt 0.1443151831626892 -0.84828287363052368 0
vt 0.1443151831626892 -0.1517169177532196 0
vt 0.1497868001461029 -0.84330213069915776 0
vt 0.87581014633178704 -0.84330213069915776 0
vt 0.8812817335128784 -0.84828293323516848 0
vt 0.1443151831626892 -0.84828287363052368 0
vt 0.87581020593643184 -0.15669775009155274 0
vt 0.1497868001461029 -0.15669772028923034 0
vt 0.1443151831626892 -0.1517169177532196 0
vt 0.8812817335128784 -0.1517169326543808 0
# 152 texture coords

g obj_53860795
usemtl Frame
s 1
f 1/1/1 2/2/2 3/3/3
f 1/1/1 3/3/3 4/4/4
f 5/5/5 6/6/6 7/7/7
f 5/5/5 7/7/7 8/8/8
f 9/9/9 10/10/10 11/11/11
f 9/9/9 11/11/11 12/12/12
f 13/13/13 14/14/14 15/15/15
f 13/13/13 15/15/15 16/16/16
f 17/17/17 18/18/18 19/19/19
f 17/17/17 19/19/19 20/20/20
f 21/21/21 22/22/22 23/23/23
f 21/21/21 23/23/23 24/24/24
f 25/25/25 26/26/26 27/27/27
f 25/25/25 27/27/27 28/28/28
f 29/29/29 30/30/30 31/31/31
f 29/29/29 31/31/31 32/32/32
f 33/33/33 34/34/34 35/35/35
f 33/33/33 35/35/35 36/36/36
f 37/37/37 38/38/38 39/39/39
f 37/37/37 39/39/39 40/40/40
f 41/41/41 42/42/42 43/43/43
f 41/41/41 43/43/43 44/44/44
f 45/45/45 46/46/46 47/47/47
f 45/45/45 47/47/47 48/48/48
f 49/49/49 50/50/50 51/51/51
f 49/49/49 51/51/51 52/52/52
f 53/53/53 54/54/54 55/55/55
f 53/53/53 55/55/55 56/56/56
f 57/57/57 58/58/58 59/59/59
f 57/57/57 59/59/59 60/60/60
f 61/61/61 62/62/62 63/63/63
f 61/61/61 63/63/63 64/64/64
f 65/65/65 66/66/66 67/67/67
f 65/65/65 67/67/67 68/68/68
f 69/69/69 70/70/70 71/71/71
f 69/69/69 71/71/71 72/72/72
f 73/73/73 74/74/74 75/75/75
f 73/73/73 75/75/75 76/76/76
f 77/77/77 78/78/78 79/79/79
f 77/77/77 79/79/79 80/80/80
f 81/81/81 82/82/82 83/83/83
f 81/81/81 83/83/83 84/84/84
f 85/85/85 86/86/86 87/87/87
f 85/85/85 87/87/87 88/88/88
f 89/89/89 90/90/90 91/91/91
f 89/89/89 91/91/91 92/92/92
f 93/93/93 94/94/94 95/95/95
f 93/93/93 95/95/95 96/96/96
f 97/97/97 98/98/98 99/99/99
f 97/97/97 99/99/99 100/100/100
f 101/101/101 102/102/102 103/103/103
f 101/101/101 103/103/103 104/104/104
f 105/105/105 106/106/106 107/107/107
f 105/105/105 107/107/107 108/108/108
f 109/109/109 110/110/110 111/111/111
f 109/109/109 111/111/111 112/112/112
f 113/113/113 114/114/114 115/115/115
f 113/113/113 115/115/115 116/116/116
f 117/117/117 118/118/118 119/119/119
f 117/117/117 119/119/119 120/120/120
f 121/121/121 122/122/122 123/123/123
f 121/121/121 123/123/123 124/124/124
f 125/125/125 126/126/126 127/127/127
f 125/125/125 127/127/127 128/128/128
f 129/129/129 130/130/130 131/131/131
f 129/129/129 131/131/131 132/132/132
f 133/133/133 134/134/134 135/135/135
f 133/133/133 135/135/135 136/136/136
f 137/137/137 138/138/138 139/139/139
f 137/137/137 139/139/139 140/140/140
f 141/141/141 142/142/142 143/143/143
f 141/141/141 143/143/143 144/144/144
f 145/145/145 146/146/146 147/147/147
f 145/145/145 147/147/147 148/148/148
f 149/149/149 150/150/150 151/151/151
f 149/149/149 151/151/151 152/152/152
#76 polygons

